<svg xmlns="http://www.w3.org/2000/svg" xmlns:xlink="http://www.w3.org/1999/xlink" width="304.103" height="166.576" viewBox="0 0 304.103 166.576"><defs><style>.a{fill:none;}.b{opacity:0.5;}.c{clip-path:url(#a);}.d{fill:#18fef0;}</style><clipPath id="a"><rect class="a" width="304.103" height="166.576"/></clipPath></defs><g class="b"><g class="c"><path class="d" d="M96.214,105.746q-.593.587-1.17,1.178l.593.579q.572-.587,1.161-1.168Z" transform="translate(-74.612 -75.967)"/><path class="d" d="M96.861,259.292q.587.582,1.19,1.159l.573-.6q-.6-.57-1.179-1.148Z" transform="translate(-75.317 -135.252)"/><path class="d" d="M92.457,109.627q-.57.609-1.126,1.222l.612.556h0q.55-.607,1.116-1.21Z" transform="translate(-73.173 -77.471)"/><path class="d" d="M93.078,255.419q.566.6,1.148,1.2l.595-.579q-.578-.593-1.137-1.19Z" transform="translate(-73.85 -133.759)"/><path class="d" d="M113.253,273.427q.656.5,1.33.994l.491-.668q-.666-.49-1.32-.986Z" transform="translate(-81.67 -140.703)"/><path class="d" d="M100.672,102.608,100.11,102q-.614.565-1.211,1.136l.572.6h0q.593-.566,1.2-1.126" transform="translate(-76.106 -74.515)"/><path class="d" d="M108.275,94.918q-.649.525-1.283,1.053l.53.636q.63-.525,1.273-1.045Z" transform="translate(-79.243 -71.77)"/><path class="d" d="M108.983,270.093q.643.519,1.3,1.034l.508-.653q-.649-.51-1.286-1.026Z" transform="translate(-80.015 -139.416)"/><path class="d" d="M112.525,91.579q-.664.5-1.315,1.013l.511.653q.649-.506,1.305-1Z" transform="translate(-80.878 -70.476)"/><path class="d" d="M104.826,266.628q.626.54,1.265,1.075l.532-.636q-.635-.53-1.255-1.066Z" transform="translate(-78.404 -138.08)"/><path class="d" d="M104.134,98.389q-.631.544-1.248,1.095l.551.619q.612-.547,1.238-1.086Z" transform="translate(-77.652 -73.115)"/><path class="d" d="M100.781,263.029q.607.561,1.229,1.116l.552-.618q-.616-.551-1.219-1.107Z" transform="translate(-76.836 -136.693)"/><path class="d" d="M89.441,251.406q.543.625,1.1,1.244l.614-.554q-.553-.615-1.091-1.232Z" transform="translate(-72.441 -132.213)"/><path class="d" d="M76.169,131.145q-.433.715-.845,1.432l.718.413h0q.407-.709.835-1.415Z" transform="translate(-66.969 -85.811)"/><path class="d" d="M73.94,229.283q.394.729.809,1.453l.716-.411q-.407-.716-.8-1.436Z" transform="translate(-66.433 -123.696)"/><path class="d" d="M76.638,233.974q.426.709.876,1.413l.7-.444q-.444-.7-.866-1.4Z" transform="translate(-67.478 -125.501)"/><path class="d" d="M74.239,136.251l-.729-.4q-.4.735-.776,1.47l.739.378v0q.372-.729.766-1.454" transform="translate(-65.965 -87.637)"/><path class="d" d="M71.477,224.466q.355.748.735,1.491l.74-.38q-.375-.735-.728-1.47Z" transform="translate(-65.478 -121.843)"/><path class="d" d="M169.383,60.791q-.777.3-1.546.6l.3.772q.765-.3,1.54-.6Z" transform="translate(-102.826 -58.543)"/><path class="d" d="M88.843,113.653q-.547.63-1.078,1.264l.636.531h0q.525-.627,1.067-1.251Z" transform="translate(-71.791 -79.032)"/><path class="d" d="M85.968,247.256q.516.645,1.051,1.286l.637-.529q-.53-.635-1.041-1.274Z" transform="translate(-71.095 -130.615)"/><path class="d" d="M79.552,238.537q.458.689.939,1.372l.679-.476q-.474-.675-.929-1.356Z" transform="translate(-68.608 -127.257)"/><path class="d" d="M85.4,117.812q-.523.651-1.026,1.307l.657.5q.5-.648,1.015-1.293Z" transform="translate(-70.476 -80.644)"/><path class="d" d="M82.8,122.614l-.668-.49q-.494.67-.969,1.347l.678.476v0q.469-.67.96-1.336" transform="translate(-69.231 -82.315)"/><path class="d" d="M82.668,242.963q.49.668,1,1.33l.657-.5q-.5-.655-.986-1.315Z" transform="translate(-69.815 -128.961)"/><path class="d" d="M70.017,219.212l-.765.319q.321.765.661,1.527l.756-.339q-.336-.752-.652-1.508" transform="translate(-64.616 -119.945)"/><path class="d" d="M149.5,69.293q-.751.357-1.494.721l.367.743q.736-.36,1.483-.717Z" transform="translate(-95.139 -61.838)"/><path class="d" d="M143.788,74.107h0Z" transform="translate(-93.505 -63.704)"/><path class="d" d="M148.6,71.685h0" transform="translate(-95.37 -62.765)"/><path class="d" d="M154.4,67.014q-.759.343-1.508.689l.348.753h0q.745-.345,1.5-.687Z" transform="translate(-97.036 -60.955)"/><path class="d" d="M145.464,293.295q.737.371,1.485.739l.364-.743q-.741-.367-1.476-.735Z" transform="translate(-94.155 -148.373)"/><path class="d" d="M144.644,71.675q-.742.375-1.477.755l.381.734q.73-.377,1.469-.75Z" transform="translate(-93.264 -62.761)"/><path class="d" d="M150.326,295.677q.746.356,1.5.706l.349-.751q-.75-.348-1.492-.7Z" transform="translate(-96.039 -149.293)"/><path class="d" d="M164.35,62.768q-.772.31-1.535.627l.317.765q.759-.315,1.527-.624Z" transform="translate(-100.88 -59.309)"/><path class="d" d="M165.2,302.2q.765.306,1.541.612l.3-.769q-.77-.306-1.531-.612Z" transform="translate(-101.804 -151.812)"/><path class="d" d="M116.878,88.368q-.683.483-1.347.973l.49.668h0q.661-.485,1.335-.966Z" transform="translate(-82.553 -69.231)"/><path class="d" d="M155.242,297.955q.752.339,1.514.674l.333-.756q-.758-.335-1.507-.674Z" transform="translate(-97.945 -150.172)"/><path class="d" d="M159.356,64.841q-.766.326-1.522.657l.333.759q.752-.33,1.514-.654Z" transform="translate(-98.949 -60.113)"/><path class="d" d="M160.2,300.126q.762.323,1.531.643l.315-.766q-.765-.317-1.52-.64Z" transform="translate(-99.864 -151.012)"/><path class="d" d="M126.281,83.026l-.443-.7q-.7.446-1.4.9l.453.694h0q.686-.447,1.386-.891" transform="translate(-86.007 -66.889)"/><path class="d" d="M126.6,282.662q.7.442,1.409.879l.433-.707q-.7-.433-1.4-.873Z" transform="translate(-86.845 -144.266)"/><path class="d" d="M122.064,279.707q.686.462,1.383.919l.453-.7q-.693-.452-1.374-.91Z" transform="translate(-85.085 -143.126)"/><path class="d" d="M117.608,276.633q.672.48,1.358.954l.471-.68q-.68-.471-1.347-.947Z" transform="translate(-83.358 -141.94)"/><path class="d" d="M121.315,85.283q-.692.466-1.372.935l.472.681h0q.673-.466,1.361-.928Z" transform="translate(-84.263 -68.036)"/><path class="d" d="M130.444,79.493q-.716.425-1.419.857l.434.706v0q.7-.433,1.409-.857Z" transform="translate(-87.783 -65.792)"/><path class="d" d="M135.9,288.2q.718.405,1.45.807l.4-.726q-.727-.4-1.44-.8Z" transform="translate(-90.448 -146.405)"/><path class="d" d="M139.857,74.174q-.736.391-1.459.788l.4.727q.718-.4,1.45-.784Z" transform="translate(-91.416 -63.73)"/><path class="d" d="M140.648,290.8q.73.39,1.47.772l.38-.736q-.736-.381-1.46-.767Z" transform="translate(-92.288 -147.41)"/><path class="d" d="M135.118,76.776q-.726.41-1.44.824l.416.717q.71-.412,1.431-.818Z" transform="translate(-89.587 -64.738)"/><path class="d" d="M131.221,285.488q.709.424,1.429.842l.417-.716q-.717-.417-1.421-.837Z" transform="translate(-88.634 -145.358)"/><path class="d" d="M79.047,126.563q-.465.694-.91,1.393l.7.445h0q.44-.689.9-1.375Z" transform="translate(-68.059 -84.035)"/><path class="d" d="M522.775,107.724q-.587-.585-1.187-1.164l-.575.6q.6.574,1.177,1.152Z" transform="translate(-239.714 -76.282)"/><path class="d" d="M483.941,78.56q-.714-.419-1.435-.83l-.411.72q.718.41,1.428.826Z" transform="translate(-224.63 -65.108)"/><path class="d" d="M514.819,100.378q-.624-.544-1.26-1.082l-.535.633q.632.535,1.25,1.074Z" transform="translate(-236.618 -73.467)"/><path class="d" d="M530.2,115.6q-.542-.626-1.1-1.246l-.617.554q.553.614,1.089,1.234Z" transform="translate(-242.612 -79.302)"/><path class="d" d="M537.013,124.026q-.49-.668-1-1.33l-.658.5q.5.655.986,1.316Z" transform="translate(-245.274 -82.537)"/><path class="d" d="M533.692,119.738q-.517-.645-1.05-1.286l-.638.53q.529.635,1.041,1.274Z" transform="translate(-243.974 -80.892)"/><path class="d" d="M510.673,96.9q-.638-.523-1.29-1.041l-.516.648q.648.515,1.281,1.036Z" transform="translate(-235.006 -72.134)"/><path class="d" d="M488.579,81.328q-.7-.435-1.417-.864l-.429.71q.71.429,1.409.857Z" transform="translate(-226.428 -66.168)"/><path class="d" d="M506.423,93.547q-.654-.505-1.32-1.006l-.5.663q.661.5,1.311,1Z" transform="translate(-233.355 -70.849)"/><path class="d" d="M493.157,84.208q-.693-.451-1.4-.9l-.445.7q.7.442,1.387.892Z" transform="translate(-228.205 -67.271)"/><path class="d" d="M502.084,90.323q-.668-.486-1.347-.969l-.479.674q.674.479,1.339.962Z" transform="translate(-231.67 -69.614)"/><path class="d" d="M497.661,87.2q-.681-.469-1.372-.933l-.462.689q.689.46,1.363.927Z" transform="translate(-229.953 -68.419)"/><path class="d" d="M68.075,214.21l-.781.279q.278.782.58,1.56l.773-.3q-.3-.767-.572-1.54" transform="translate(-63.857 -118.007)"/><path class="d" d="M554.686,163.173l.81-.175q-.176-.812-.377-1.62l-.8.2q.2.8.371,1.6" transform="translate(-252.622 -97.529)"/><path class="d" d="M555.721,168.45l.819-.126q-.126-.823-.279-1.642l-.815.151q.152.806.274,1.617" transform="translate(-253.061 -99.586)"/><path class="d" d="M556.815,179.146l.829-.025q-.025-.832-.075-1.661l-.827.05q.049.817.073,1.637" transform="translate(-253.562 -103.762)"/><path class="d" d="M540.147,128.45q-.459-.69-.938-1.373l-.678.475q.473.676.926,1.358Z" transform="translate(-246.504 -84.235)"/><path class="d" d="M556.429,173.78l.826-.078q-.077-.827-.178-1.654l-.823.1q.1.813.175,1.63" transform="translate(-253.374 -101.665)"/><path class="d" d="M553.332,157.959l.8-.222q-.224-.8-.473-1.6l-.791.245q.245.786.467,1.577" transform="translate(-252.06 -95.498)"/><path class="d" d="M543.081,133.012q-.427-.71-.873-1.415l-.7.443q.442.7.864,1.4Z" transform="translate(-247.658 -85.987)"/><path class="d" d="M551.678,152.82l.784-.269q-.27-.785-.563-1.565l-.776.291q.289.769.555,1.544" transform="translate(-251.385 -93.501)"/><path class="d" d="M545.794,137.7q-.392-.73-.8-1.455l-.72.41q.409.717.8,1.438Z" transform="translate(-248.728 -87.79)"/><path class="d" d="M549.735,147.791l.768-.314q-.313-.768-.649-1.531l-.759.333q.334.753.641,1.511" transform="translate(-250.598 -91.548)"/><path class="d" d="M548.279,142.526q-.354-.751-.729-1.495l-.74.373q.37.735.72,1.476Z" transform="translate(-249.713 -89.643)"/><path class="d" d="M518.858,103.986q-.605-.564-1.225-1.122l-.554.615q.615.554,1.214,1.113Z" transform="translate(-238.19 -74.85)"/><path class="d" d="M62.882,173.56q.073-.817.17-1.632l-.823-.1q-.1.828-.172,1.657l.826.074Z" transform="translate(-61.826 -101.58)"/><path class="d" d="M62.51,182.657H62.1l-.415.051q0,.807.023,1.614l.829-.024c-.016-.529-.023-1.059-.023-1.641" transform="translate(-61.681 -105.777)"/><path class="d" d="M62.552,178.92q.024-.816.073-1.633l-.828-.05q-.049.829-.075,1.658l.829.025Z" transform="translate(-61.697 -103.677)"/><path class="d" d="M63.517,168.215q.12-.81.265-1.619l-.816-.146q-.146.821-.268,1.644l.819.122Z" transform="translate(-62.075 -99.495)"/><path class="d" d="M65.709,157.694q.211-.79.446-1.579l-.8-.236q-.239.8-.453,1.6l.8.214Z" transform="translate(-62.931 -95.398)"/><path class="d" d="M64.817,161.32l-.807-.192q-.193.812-.362,1.625l.811.169q.166-.8.357-1.6" transform="translate(-62.444 -97.433)"/><path class="d" d="M67.741,153.7h0Z" transform="translate(-64.029 -94.553)"/><path class="d" d="M479.238,75.889q-.719-.4-1.454-.8l-.394.729q.727.4,1.445.8Z" transform="translate(-222.806 -64.086)"/><path class="d" d="M65.018,203.933l-.807.19q.191.809.406,1.616l.8-.214q-.211-.8-.4-1.592" transform="translate(-62.662 -114.023)"/><path class="d" d="M66.4,209.109l-.8.235q.237.8.495,1.592l.791-.26q-.257-.782-.49-1.567" transform="translate(-63.203 -116.03)"/><path class="d" d="M63.139,193.369l-.824.1q.1.827.219,1.654l.821-.119q-.12-.815-.216-1.631" transform="translate(-61.927 -109.929)"/><path class="d" d="M63.923,198.686l-.816.144q.146.818.314,1.635l.809-.167q-.164-.806-.306-1.612" transform="translate(-62.234 -111.99)"/><path class="d" d="M62.661,188.017l-.827.048q.051.832.122,1.663l.824-.072q-.071-.819-.119-1.638" transform="translate(-61.74 -107.854)"/><path class="d" d="M464.788,68.51q-.746-.355-1.5-.706l-.349.751q.75.348,1.492.7Z" transform="translate(-217.205 -61.261)"/><path class="d" d="M459.878,66.245q-.754-.339-1.514-.674l-.334.758q.757.333,1.507.674Z" transform="translate(-215.303 -60.396)"/><path class="d" d="M454.924,64.08q-.761-.326-1.527-.647l-.32.765q.763.32,1.519.644Z" transform="translate(-213.383 -59.567)"/><path class="d" d="M474.463,73.33q-.73-.387-1.47-.767l-.378.735q.736.379,1.463.762Z" transform="translate(-220.956 -63.106)"/><path class="d" d="M469.647,70.868q-.739-.367-1.486-.735l-.364.745q.744.365,1.478.732Z" transform="translate(-219.089 -62.164)"/><path class="d" d="M444.9,60.027q-.77-.3-1.549-.592l-.292.776q.773.291,1.541.589Z" transform="translate(-209.502 -58.017)"/><path class="d" d="M69.06,147.484q.294-.763.612-1.523l-.764-.32q-.323.77-.622,1.543l.772.3Z" transform="translate(-64.241 -91.43)"/><path class="d" d="M449.932,62.008q-.765-.313-1.537-.619l-.306.771q.769.306,1.531.615Z" transform="translate(-211.45 -58.775)"/><path class="d" d="M71.832,141.049l-.747-.359q-.362.752-.7,1.508l.756.341q.335-.747.692-1.49" transform="translate(-65.054 -89.511)"/><path class="d" d="M67.774,150.986l-.78-.279q-.281.786-.54,1.575l.787.258q.255-.777.532-1.553" transform="translate(-63.531 -93.393)"/><path class="d" d="M440.187,58.241c-.362-.133-.726-.264-1.09-.4-.063.271-.124.542-.195.811.334.12.668.24,1,.362Z" transform="translate(-207.889 -57.401)"/><path class="d" d="M526.558,111.592q-.565-.6-1.145-1.2l-.6.577q.576.593,1.135,1.192Z" transform="translate(-241.189 -77.767)"/><path class="d" d="M484.3,284.8l.42.715h0q.717-.422,1.426-.846l-.429-.71q-.7.424-1.419.841" transform="translate(-225.483 -145.04)"/><path class="d" d="M476.327,289.283q-.72.392-1.455.777l.386.735h0q.737-.389,1.463-.781Z" transform="translate(-221.831 -147.104)"/><path class="d" d="M479.612,287.48l.4.724h0q.728-.4,1.445-.814l-.41-.72q-.716.406-1.437.809" transform="translate(-223.668 -146.092)"/><path class="d" d="M471.553,291.8q-.73.379-1.47.747l.37.739q.743-.372,1.478-.75Z" transform="translate(-219.974 -148.08)"/><path class="d" d="M465.244,294.929l.356.748h0q.751-.356,1.494-.72l-.363-.745q-.74.36-1.487.716" transform="translate(-218.099 -149.015)"/><path class="d" d="M470.688,294.228v0Z" transform="translate(-220.209 -149.02)"/><path class="d" d="M461.856,296.533q-.746.346-1.5.686l.341.754q.757-.342,1.508-.69Z" transform="translate(-216.204 -149.914)"/><path class="d" d="M494.826,278.189q-.683.458-1.375.909l.453.695q.7-.456,1.383-.915Z" transform="translate(-229.032 -142.804)"/><path class="d" d="M497.924,276.081l.47.683v0q.687-.473,1.361-.95l-.479-.674q-.671.475-1.352.943" transform="translate(-230.765 -141.622)"/><path class="d" d="M489.618,283.707h0Z" transform="translate(-227.545 -144.943)"/><path class="d" d="M490.305,281.128q-.694.44-1.4.875l.436.7q.708-.436,1.406-.878Z" transform="translate(-227.271 -143.944)"/><path class="d" d="M494.189,280.808Z" transform="translate(-229.318 -143.819)"/><path class="d" d="M503.122,274.659h0Z" transform="translate(-232.779 -141.436)"/><path class="d" d="M435.321,307.256l.272.783h0q.785-.274,1.564-.551l-.279-.781q-.775.276-1.557.548" transform="translate(-206.501 -153.858)"/><path class="d" d="M425.087,310.653l.245.791h0q.793-.245,1.581-.5l-.252-.789q-.785.251-1.575.5" transform="translate(-202.534 -155.195)"/><path class="d" d="M430.22,309l.26.788h0q.789-.259,1.572-.524l-.265-.786q-.78.264-1.567.522" transform="translate(-204.524 -154.544)"/><path class="d" d="M419.923,312.226l.233.8h0q.8-.234,1.589-.472l-.239-.8q-.787.238-1.583.471" transform="translate(-200.533 -155.814)"/><path class="d" d="M409.526,315.127l.208.8q.807-.208,1.6-.423l-.215-.8q-.8.213-1.6.421" transform="translate(-196.503 -156.958)"/><path class="d" d="M414.734,313.721l.22.8,0,0q.8-.221,1.6-.448l-.226-.8q-.8.226-1.592.446" transform="translate(-198.522 -156.403)"/><path class="d" d="M450.454,301.507l.314.767h0q.768-.313,1.531-.633l-.32-.765q-.758.319-1.526.63" transform="translate(-212.366 -151.598)"/><path class="d" d="M456.94,298.752q-.752.331-1.513.658l.328.762q.764-.329,1.519-.661Z" transform="translate(-214.294 -150.774)"/><path class="d" d="M440.4,305.429l.285.778q.78-.286,1.554-.578l-.292-.776q-.771.29-1.548.575" transform="translate(-208.469 -153.139)"/><path class="d" d="M455.962,301.07Z" transform="translate(-214.501 -151.673)"/><path class="d" d="M445.443,303.513l.3.773h0q.774-.3,1.543-.605l-.306-.77q-.765.3-1.537.6" transform="translate(-210.424 -152.386)"/><path class="d" d="M460.914,298.887h0Z" transform="translate(-216.42 -150.826)"/><path class="d" d="M551.98,210.669l.783.271v0q.273-.785.521-1.581l-.791-.245q-.245.782-.514,1.558" transform="translate(-251.717 -116.03)"/><path class="d" d="M550.69,214.177q-.289.766-.6,1.527l.766.314q.316-.772.609-1.549Z" transform="translate(-250.984 -117.994)"/><path class="d" d="M551.341,217.184h0Z" transform="translate(-251.469 -119.159)"/><path class="d" d="M404.3,316.458l.2.805q.807-.2,1.609-.4l-.2-.8q-.8.2-1.6.4" transform="translate(-194.477 -157.484)"/><path class="d" d="M545.5,225.436l.729.393h0q.4-.735.77-1.475l-.739-.375q-.37.732-.76,1.456" transform="translate(-249.207 -121.793)"/><path class="d" d="M547.924,220.63l.748.355q.357-.754.693-1.513l-.758-.335q-.331.749-.683,1.494" transform="translate(-250.145 -119.916)"/><path class="d" d="M553.587,205.539l.8.225h0q.226-.8.429-1.609l-.8-.2q-.2.795-.423,1.584" transform="translate(-252.34 -114.032)"/><path class="d" d="M556.882,182.748q0,.821-.025,1.639l.828.026q.026-.831.026-1.665Z" transform="translate(-253.607 -105.812)"/><path class="d" d="M543.676,228.707q-.406.711-.831,1.417l.709.429h0q.432-.714.841-1.435Z" transform="translate(-248.176 -123.626)"/><path class="d" d="M556.651,188.111q-.05.82-.127,1.637l.826.077q.078-.83.129-1.663Z" transform="translate(-253.478 -107.891)"/><path class="d" d="M557.872,190.91" transform="translate(-254.001 -108.976)"/><path class="d" d="M555.867,195.065l.819.127h0q.127-.821.23-1.646l-.822-.1q-.1.813-.227,1.621" transform="translate(-253.224 -109.958)"/><path class="d" d="M554.882,200.33l.81.178q.178-.814.331-1.632l-.815-.152q-.15.806-.326,1.607" transform="translate(-252.842 -112.004)"/><path class="d" d="M514.958,262.826l.544.625v0q.631-.551,1.243-1.1l-.554-.615q-.61.548-1.233,1.091" transform="translate(-237.368 -136.427)"/><path class="d" d="M522.832,255.449l.584.587q.591-.589,1.167-1.182l-.594-.578q-.572.589-1.157,1.172" transform="translate(-240.42 -133.536)"/><path class="d" d="M503.649,271.967q-.658.49-1.325.98l.489.668q.673-.49,1.334-.985Z" transform="translate(-232.471 -140.393)"/><path class="d" d="M518.953,259.2l.565.608q.611-.568,1.206-1.141l-.574-.6q-.591.568-1.2,1.131" transform="translate(-238.916 -135.006)"/><path class="d" d="M506.631,269.694l.506.656q.659-.509,1.307-1.023l-.516-.649q-.643.512-1.3,1.016" transform="translate(-234.14 -139.118)"/><path class="d" d="M510.847,266.322l.525.641h0q.644-.528,1.277-1.062l-.535-.633q-.627.53-1.266,1.053" transform="translate(-235.774 -137.797)"/><path class="d" d="M533.617,243.392l.647.518q.522-.651,1.025-1.309l-.657-.5q-.5.65-1.015,1.3" transform="translate(-244.6 -128.815)"/><path class="d" d="M536.884,239.105l.668.49h0q.493-.672.969-1.351l-.679-.476q-.469.671-.959,1.336" transform="translate(-245.866 -127.138)"/><path class="d" d="M539.965,234.68l.69.461h0q.463-.694.908-1.393l-.7-.445q-.44.691-.9,1.377" transform="translate(-247.06 -125.407)"/><path class="d" d="M527.562,253.255h0Z" transform="translate(-242.252 -133.14)"/><path class="d" d="M530.174,247.546l.626.544h0q.547-.63,1.077-1.265l-.636-.531q-.525.629-1.067,1.253" transform="translate(-243.265 -130.442)"/><path class="d" d="M527.689,250.351q-.549.61-1.114,1.212l.6.566q.572-.612,1.123-1.224Z" transform="translate(-241.87 -132.015)"/><path class="d" d="M222.185,319.114q.807.168,1.623.331l.164-.812q-.813-.163-1.618-.331Z" transform="translate(-123.891 -158.352)"/><path class="d" d="M227.489,320.178q.81.156,1.628.31l.151-.817q-.814-.151-1.622-.306Z" transform="translate(-125.947 -158.764)"/><path class="d" d="M248.844,323.746q.817.116,1.64.228l.111-.821q-.82-.112-1.636-.228Z" transform="translate(-134.224 -160.144)"/><path class="d" d="M254.2,324.474q.819.107,1.644.209l.1-.822q-.821-.1-1.638-.209Z" transform="translate(-136.299 -160.425)"/><path class="d" d="M238.135,322.1q.815.136,1.635.268l.132-.818-1.63-.267Z" transform="translate(-130.073 -159.507)"/><path class="d" d="M259.568,325.142q.819.1,1.645.19l.092-.824q-.822-.092-1.641-.189Z" transform="translate(-138.38 -160.684)"/><path class="d" d="M232.808,321.176q.811.147,1.631.288l.142-.816q-.817-.143-1.626-.288Z" transform="translate(-128.009 -159.149)"/><path class="d" d="M243.492,322.958l1.638.245.122-.819q-.819-.119-1.633-.245Z" transform="translate(-132.15 -159.839)"/><path class="d" d="M281.1,327.21q.825.062,1.654.119l.055-.826q-.826-.058-1.647-.119Z" transform="translate(-146.726 -161.484)"/><path class="d" d="M264.943,325.746q.821.087,1.647.172l.084-.824q-.824-.083-1.642-.171Z" transform="translate(-140.464 -160.918)"/><path class="d" d="M286.5,327.592l1.654.1.049-.827-1.649-.1Z" transform="translate(-148.819 -161.632)"/><path class="d" d="M275.714,326.779l1.65.136.067-.826-1.646-.136Z" transform="translate(-144.638 -161.317)"/><path class="d" d="M270.327,326.29q.822.08,1.649.154l.075-.826q-.825-.074-1.645-.153Z" transform="translate(-142.551 -161.129)"/><path class="d" d="M190.729,311.147q.792.239,1.588.474l.233-.8q-.795-.233-1.581-.472Z" transform="translate(-111.699 -155.27)"/><path class="d" d="M179.555,57.12q-.788.268-1.567.541l.274.783q.776-.272,1.56-.539Z" transform="translate(-106.761 -57.12)"/><path class="d" d="M180.42,307.841q.781.266,1.571.527l.26-.787q-.786-.261-1.565-.525Z" transform="translate(-107.703 -153.993)"/><path class="d" d="M185.565,309.543q.784.255,1.579.5l.247-.79q-.791-.248-1.573-.5Z" transform="translate(-109.697 -154.651)"/><path class="d" d="M291.9,327.912q.824.045,1.653.087l.041-.828q-.828-.041-1.649-.086Z" transform="translate(-150.911 -161.756)"/><path class="d" d="M175.314,306.054q.777.28,1.562.556l.274-.784q-.783-.271-1.555-.551Z" transform="translate(-105.724 -153.302)"/><path class="d" d="M174.45,58.912q-.783.281-1.557.568l.288.777q.771-.286,1.55-.566Z" transform="translate(-104.786 -57.815)"/><path class="d" d="M170.238,304.173q.77.295,1.551.584l.288-.777q-.777-.288-1.544-.581Z" transform="translate(-103.757 -152.576)"/><path class="d" d="M211.623,316.77q.8.192,1.614.376l.186-.807q-.807-.187-1.608-.375Z" transform="translate(-119.797 -157.445)"/><path class="d" d="M216.9,317.979q.806.179,1.619.354l.174-.811q-.809-.174-1.612-.352Z" transform="translate(-121.842 -157.913)"/><path class="d" d="M195.92,312.678q.794.227,1.6.449l.221-.8q-.8-.221-1.589-.448Z" transform="translate(-113.711 -155.863)"/><path class="d" d="M201.13,314.119q.8.214,1.6.424l.209-.8q-.8-.208-1.6-.423Z" transform="translate(-115.73 -156.42)"/><path class="d" d="M206.368,315.483q.8.2,1.608.4l.2-.8q-.806-.2-1.6-.4Z" transform="translate(-117.761 -156.948)"/><path class="d" d="M335.143,328.348" transform="translate(-167.673 -162.246)"/><path class="d" d="M367.246,323.628l.115.821h0q.821-.114,1.639-.236l-.122-.819q-.817.119-1.635.235" transform="translate(-180.116 -160.325)"/><path class="d" d="M372.79,324.328Z" transform="translate(-182.264 -160.687)"/><path class="d" d="M374.215,322.57q-.814.135-1.631.258l.126.819q.82-.127,1.636-.258Z" transform="translate(-182.185 -160.006)"/><path class="d" d="M361.9,324.358l.1.822q.823-.1,1.644-.214l-.11-.821q-.817.108-1.638.213" transform="translate(-178.044 -160.617)"/><path class="d" d="M351.185,325.6l.082.825h0q.826-.083,1.647-.17l-.087-.824q-.82.087-1.642.169" transform="translate(-173.891 -161.113)"/><path class="d" d="M356.546,325.012l.093.824h0q.826-.094,1.646-.192l-.1-.823q-.818.1-1.64.19" transform="translate(-175.968 -160.879)"/><path class="d" d="M388.5,319.988l.161.813h0q.815-.161,1.624-.326l-.167-.812q-.807.165-1.619.326" transform="translate(-188.354 -158.879)"/><path class="d" d="M345.817,326.109l.071.826h0q.826-.072,1.65-.148l-.077-.826q-.82.077-1.644.148" transform="translate(-171.81 -161.32)"/><path class="d" d="M378.132,323.466Z" transform="translate(-184.335 -160.353)"/><path class="d" d="M393.784,318.885l.172.811h0q.811-.173,1.619-.35l-.178-.81q-.806.177-1.614.35" transform="translate(-190.402 -158.442)"/><path class="d" d="M383.2,321.008l.148.817h0q.817-.152,1.628-.306l-.154-.814q-.81.153-1.624.3" transform="translate(-186.301 -159.283)"/><path class="d" d="M379.534,321.674q-.811.142-1.626.279l.138.818q.818-.139,1.632-.281Z" transform="translate(-184.248 -159.659)"/><path class="d" d="M297.3,328.181l1.654.07.037-.828-1.654-.07Z" transform="translate(-153.004 -161.86)"/><path class="d" d="M315.152,327.712q-.823.013-1.649.021l.008.829q.828-.008,1.653-.021Z" transform="translate(-159.285 -161.999)"/><path class="d" d="M313.516,329.1Z" transform="translate(-159.29 -162.537)"/><path class="d" d="M342.088,326.427q-.821.065-1.647.126l.061.826q.828-.061,1.652-.127Z" transform="translate(-169.726 -161.501)"/><path class="d" d="M308.113,327.735l-.021.829.784.019h.879v-.829h-.87Z" transform="translate(-157.188 -162.008)"/><path class="d" d="M302.7,328.4l1.654.055.029-.828-1.653-.055Z" transform="translate(-155.099 -161.945)"/><path class="d" d="M318.884,327.634l.019.829h0q.827-.018,1.654-.042l-.024-.829q-.827.025-1.654.042" transform="translate(-161.371 -161.953)"/><path class="d" d="M324.284,327.471l.029.829h0q.827-.028,1.653-.061l-.034-.828q-.825.032-1.65.061" transform="translate(-163.464 -161.882)"/><path class="d" d="M340.54,327.982Z" transform="translate(-169.764 -162.104)"/><path class="d" d="M336.711,326.825q-.823.054-1.649.105l.05.827q.829-.051,1.653-.105Z" transform="translate(-167.641 -161.655)"/><path class="d" d="M329.674,327.235l.039.828h0q.827-.04,1.654-.085l-.045-.827q-.824.044-1.649.084" transform="translate(-165.553 -161.782)"/><path class="d" d="M399.051,317.713l.184.808h0q.809-.185,1.614-.375l-.19-.807q-.8.189-1.608.373" transform="translate(-192.443 -157.979)"/></g></g></svg>