<svg width="21" height="21" viewBox="0 0 21 21" fill="none" xmlns="http://www.w3.org/2000/svg">
<path d="M7.95677 16.1991C8.96903 16.1991 9.78964 15.3785 9.78964 14.3663C9.78964 13.354 8.96903 12.5334 7.95677 12.5334C6.9445 12.5334 6.1239 13.354 6.1239 14.3663C6.1239 15.3785 6.9445 16.1991 7.95677 16.1991Z" stroke="#186875" stroke-width="0.755973"/>
<path d="M12.9788 12.6017L14.872 15.9845L11.0856 15.9845L12.9788 12.6017Z" stroke="#186875" stroke-width="0.755973"/>
<mask id="path-3-inside-1_2_2131" fill="white">
<path d="M13.3086 13.103C13.1643 12.8452 12.7933 12.8452 12.649 13.103L11.3209 15.476C11.1799 15.728 11.362 16.0386 11.6507 16.0386H14.3069C14.5956 16.0386 14.7777 15.728 14.6367 15.476L13.3086 13.103ZM12.649 12.4171C12.7933 12.1593 13.1643 12.1593 13.3086 12.4171L15.2019 15.7999C15.3429 16.0519 15.1608 16.3625 14.872 16.3625H11.0856C10.7968 16.3625 10.6147 16.0519 10.7557 15.7999L12.649 12.4171Z"/>
</mask>
<path d="M10.7557 15.7999L10.096 15.4307L10.7557 15.7999ZM15.2019 15.7999L14.5422 16.1691L15.2019 15.7999ZM14.6367 15.476L15.2964 15.1068L14.6367 15.476ZM12.649 13.103L11.9893 12.7338L12.649 13.103ZM13.3086 13.103L12.649 13.4723L13.3086 13.103ZM11.9893 12.7338L10.6612 15.1068L11.9806 15.8452L13.3086 13.4723L11.9893 12.7338ZM11.6507 16.7946H14.3069V15.2826H11.6507V16.7946ZM15.2964 15.1068L13.9683 12.7338L12.649 13.4723L13.977 15.8452L15.2964 15.1068ZM12.649 12.7863L14.5422 16.1691L15.8616 15.4307L13.9683 12.0479L12.649 12.7863ZM14.872 15.6065H11.0856V17.1185H14.872V15.6065ZM11.4154 16.1691L13.3086 12.7863L11.9893 12.0479L10.096 15.4307L11.4154 16.1691ZM11.0856 15.6065C11.3743 15.6065 11.5564 15.9172 11.4154 16.1691L10.096 15.4307C9.673 16.1866 10.2194 17.1185 11.0856 17.1185V15.6065ZM14.5422 16.1691C14.4012 15.9172 14.5833 15.6065 14.872 15.6065V17.1185C15.7382 17.1185 16.2846 16.1866 15.8616 15.4307L14.5422 16.1691ZM13.9683 12.0479C13.5354 11.2744 12.4222 11.2744 11.9893 12.0479L13.3086 12.7863C13.1643 13.0442 12.7933 13.0442 12.649 12.7863L13.9683 12.0479ZM14.3069 16.7946C15.1731 16.7946 15.7194 15.8627 15.2964 15.1068L13.977 15.8452C13.836 15.5933 14.0181 15.2826 14.3069 15.2826V16.7946ZM10.6612 15.1068C10.2382 15.8627 10.7845 16.7946 11.6507 16.7946V15.2826C11.9395 15.2826 12.1216 15.5933 11.9806 15.8452L10.6612 15.1068ZM13.3086 13.4723C13.1643 13.7301 12.7933 13.7301 12.649 13.4723L13.9683 12.7338C13.5354 11.9603 12.4222 11.9603 11.9893 12.7338L13.3086 13.4723Z" fill="#186875" mask="url(#path-3-inside-1_2_2131)"/>
<path d="M12.0455 7.73975H8.66174V11.1235H12.0455V7.73975Z" stroke="#186875" stroke-width="0.755973"/>
<path d="M17.5937 4.79583L15.9119 17.4776C15.9019 17.4985 15.8967 17.5215 15.8967 17.5447C15.8967 18.1622 13.6561 18.8505 10.4407 18.8505C7.22528 18.8505 4.98467 18.1622 4.98467 17.5447C4.98468 17.5215 4.97947 17.4985 4.96944 17.4776L3.28772 4.79583C4.3756 5.69083 7.48301 6.16681 10.4407 6.16681C13.3984 6.16681 16.5033 5.69055 17.5937 4.79583ZM3.20594 4.17857L3.19128 4.07762C3.20594 3.24071 6.17857 2.31018 10.4407 2.31018C14.7028 2.31018 17.6754 3.24071 17.689 4.07762L17.6757 4.17857C17.4617 4.99096 14.5514 5.85579 10.4407 5.85579C6.33 5.85579 3.41997 4.99096 3.20594 4.17857ZM10.4407 2C6.77609 2 2.8811 2.73004 2.8811 4.08326C2.8811 4.08919 2.88251 4.09483 2.88251 4.10047V4.10385L2.88421 4.11485C2.88598 4.15508 2.89126 4.19509 2.9 4.23441L4.67534 17.6217C4.67736 17.6364 4.68144 17.6509 4.68746 17.6645C4.90656 18.6368 7.75456 19.159 10.4398 19.159C13.1251 19.159 15.9743 18.6359 16.1922 17.6645C16.1983 17.6509 16.2024 17.6365 16.2044 17.6217L17.9808 4.23441C17.9896 4.19508 17.995 4.15508 17.9969 4.11485L17.9986 4.10244V4.09906C17.9986 4.09342 18 4.08778 18 4.08185C18.0006 2.73005 14.1056 2 10.4407 2Z" fill="#186875"/>
<path d="M17.5937 4.79583L15.9119 17.4776C15.9019 17.4985 15.8967 17.5215 15.8967 17.5447C15.8967 18.1622 13.6561 18.8505 10.4407 18.8505C7.22528 18.8505 4.98467 18.1622 4.98467 17.5447C4.98468 17.5215 4.97947 17.4985 4.96944 17.4776L3.28772 4.79583C4.3756 5.69083 7.48301 6.16681 10.4407 6.16681C13.3984 6.16681 16.5033 5.69055 17.5937 4.79583ZM3.20594 4.17857L3.19128 4.07762C3.20594 3.24071 6.17857 2.31018 10.4407 2.31018C14.7028 2.31018 17.6754 3.24071 17.689 4.07762L17.6757 4.17857C17.4617 4.99096 14.5514 5.85579 10.4407 5.85579C6.33 5.85579 3.41997 4.99096 3.20594 4.17857ZM10.4407 2C6.77609 2 2.8811 2.73004 2.8811 4.08326C2.8811 4.08919 2.88251 4.09483 2.88251 4.10047V4.10385L2.88421 4.11485C2.88598 4.15508 2.89126 4.19509 2.9 4.23441L4.67534 17.6217C4.67736 17.6364 4.68144 17.6509 4.68746 17.6645C4.90656 18.6368 7.75456 19.159 10.4398 19.159C13.1251 19.159 15.9743 18.6359 16.1922 17.6645C16.1983 17.6509 16.2024 17.6365 16.2044 17.6217L17.9808 4.23441C17.9896 4.19508 17.995 4.15508 17.9969 4.11485L17.9986 4.10244V4.09906C17.9986 4.09342 18 4.08778 18 4.08185C18.0006 2.73005 14.1056 2 10.4407 2Z" stroke="#186875" stroke-width="0.604778"/>
</svg>
