<?xml version="1.0" standalone="no"?><!DOCTYPE svg PUBLIC "-//W3C//DTD SVG 1.1//EN" "http://www.w3.org/Graphics/SVG/1.1/DTD/svg11.dtd"><svg t="1712634830831" class="icon" viewBox="0 0 1024 1024" version="1.1" xmlns="http://www.w3.org/2000/svg" p-id="25433" xmlns:xlink="http://www.w3.org/1999/xlink" width="16" height="16"><path d="M728.192 454.528a29.056 29.056 0 0 1-44.608 0L546.56 302.528a43.776 43.776 0 0 1-1.472-54.592c12.288-15.552 32.96-16.384 46.08-1.792l82.304 91.328v-234.88c0-21.312 14.656-38.592 32.64-38.592 18.048 0 32.64 17.28 32.64 38.592v234.368l81.856-90.816c13.12-14.592 33.792-13.76 46.08 1.792a43.776 43.776 0 0 1-1.472 54.592l-136.96 152zM329.728 74.432a29.056 29.056 0 0 0-44.672 0L148.096 226.56a43.776 43.776 0 0 0-1.536 54.528c12.352 15.552 39.936 14.592 53.12 0L275.008 193.28v233.088c0 21.312 14.592 38.592 32.64 38.592 17.984 0 32.64-17.28 32.64-38.592V192l81.792 90.816c13.184 14.592 38.4 8 46.08-1.792a43.776 43.776 0 0 0-1.408-54.528L329.728 74.432z" p-id="25434" fill="#186875"></path><path d="M233.6 754.624c-18.048 0-32.64 17.28-32.64 38.528 0 21.248 14.592 38.464 32.64 38.464h538.24c17.92 0 32.512-17.216 32.512-38.464 0-21.312-14.528-38.528-32.512-38.528H233.6z" p-id="25435" fill="#186875"></path><path d="M144.448 522.944c-44.992 0-81.472 43.2-81.472 96.448v231.68c0 53.248 36.48 96.384 81.472 96.384h734.08c44.992 0 81.472-43.136 81.472-96.384v-231.68c0-53.248-36.48-96.448-81.472-96.448H144.448z m-16.384 96.448c0-10.688 7.36-19.392 16.384-19.392h734.08c9.024 0 16.384 8.704 16.384 19.392v231.68c0 10.688-7.36 19.392-16.384 19.392H144.448c-9.024 0-16.384-8.704-16.384-19.392v-231.68z" p-id="25436" fill="#186875"></path></svg>