<svg width="46" height="46" viewBox="0 0 46 46" fill="none" xmlns="http://www.w3.org/2000/svg">
<g id="Frame 1000002973">
<g id="Group 1000002934">
<path id="Vector" d="M40.8281 4.181C28.1584 17.0317 15.6697 29.5203 3 42.371V4H14.2217V15.2217C14.4027 15.2217 14.4027 15.4027 14.5837 15.4027L16.3937 13.5927C19.2896 10.6968 22.1855 7.6199 25.2624 4.72398C25.6244 4.36199 26.3484 4 26.8914 4H40.2851C40.4661 4 40.4661 4 40.8281 4.181Z" fill="#E81313"/>
<path id="Vector_2" d="M42.9997 27.1673V42.3709H27.4341L31.235 38.57C27.9771 35.3121 24.7192 32.2352 21.8232 29.3393C24.5382 26.6243 27.2531 24.0904 29.787 21.3755L39.1988 30.7872C40.2848 29.5203 41.5518 28.2533 42.6377 26.9863C42.8187 26.9863 42.8187 26.9863 42.9997 27.1673Z" fill="black"/>
</g>
</g>
</svg>
